<?xml version="1.0" encoding="iso-8859-1"?>
<!-- Generator: Adobe Illustrator 19.1.1, SVG Export Plug-In . SVG Version: 6.00 Build 0)  -->
<svg xmlns="http://www.w3.org/2000/svg" xmlns:xlink="http://www.w3.org/1999/xlink" version="1.1" id="Layer_1" x="0px" y="0px" viewBox="0 0 40 40" style="enable-background:new 0 0 40 40;" xml:space="preserve">
<line style="fill:#DCD5F2;stroke:#8B75A1;stroke-miterlimit:10;" x1="19.5" y1="13.5" x2="19.5" y2="4.5"/>
<g>
	<circle style="fill:#DCD5F2;" cx="19.5" cy="4.5" r="3"/>
	<path style="fill:#8B75A1;" d="M19.5,2C20.879,2,22,3.122,22,4.5S20.879,7,19.5,7S17,5.878,17,4.5S18.121,2,19.5,2 M19.5,1   C17.567,1,16,2.567,16,4.5S17.567,8,19.5,8S23,6.433,23,4.5S21.433,1,19.5,1L19.5,1z"/>
</g>
<g>
	<path style="fill:#DCD5F2;" d="M19,38.5c-4.304,0-14.5-1.358-14.5-3.5v-8.139C4.5,19.077,11.141,12.5,19,12.5h1   c7.859,0,14.5,6.577,14.5,14.361V35c0,2.142-10.196,3.5-14.5,3.5H19z"/>
	<path style="fill:#8B75A1;" d="M20,13c7.589,0,14,6.348,14,13.861V35c0,0.011-0.239,1.136-5.571,2.129   C25.202,37.73,21.558,38,20,38h-1c-1.558,0-5.202-0.27-8.429-0.871C5.239,36.136,5,35.011,5,35v-8.139C5,19.348,11.411,13,19,13H20    M20,12h-1c-8.154,0-15,6.707-15,14.861V35c0,2.965,12.035,4,15,4h1c2.965,0,15-1.035,15-4v-8.139C35,18.707,28.154,12,20,12L20,12   z"/>
</g>
<g>
	<path style="fill:#FFFFFF;" d="M12.5,30.5c-2.206,0-4-1.794-4-4s1.794-4,4-4h14c2.206,0,4,1.794,4,4s-1.794,4-4,4H12.5z"/>
	<path style="fill:#8B75A1;" d="M26.5,23c1.93,0,3.5,1.57,3.5,3.5S28.43,30,26.5,30h-14C10.57,30,9,28.43,9,26.5s1.57-3.5,3.5-3.5   H26.5 M26.5,22h-14C10.025,22,8,24.025,8,26.5s2.025,4.5,4.5,4.5h14c2.475,0,4.5-2.025,4.5-4.5S28.975,22,26.5,22L26.5,22z"/>
</g>
<g>
	<circle style="fill:#8BB7F0;" cx="12.5" cy="26.5" r="1"/>
	<path style="fill:#4E7AB5;" d="M12.5,26c0.276,0,0.5,0.224,0.5,0.5S12.776,27,12.5,27S12,26.776,12,26.5S12.224,26,12.5,26    M12.5,25c-0.828,0-1.5,0.672-1.5,1.5s0.672,1.5,1.5,1.5s1.5-0.672,1.5-1.5S13.328,25,12.5,25L12.5,25z"/>
</g>
<g>
	<circle style="fill:#8BB7F0;" cx="26.5" cy="26.5" r="1"/>
	<path style="fill:#4E7AB5;" d="M26.5,26c0.276,0,0.5,0.224,0.5,0.5S26.776,27,26.5,27S26,26.776,26,26.5S26.224,26,26.5,26    M26.5,25c-0.828,0-1.5,0.672-1.5,1.5s0.672,1.5,1.5,1.5s1.5-0.672,1.5-1.5S27.328,25,26.5,25L26.5,25z"/>
</g>
<g>
	<path style="fill:#DCD5F2;" d="M35.5,32.5c-0.552,0-1-0.449-1-1v-13c0-0.551,0.448-1,1-1s1,0.449,1,1v13   C36.5,32.051,36.052,32.5,35.5,32.5z"/>
	<path style="fill:#8B75A1;" d="M35.5,18c0.271,0,0.5,0.229,0.5,0.5v13c0,0.271-0.229,0.5-0.5,0.5S35,31.771,35,31.5v-13   C35,18.229,35.229,18,35.5,18 M35.5,17c-0.825,0-1.5,0.675-1.5,1.5v13c0,0.825,0.675,1.5,1.5,1.5s1.5-0.675,1.5-1.5v-13   C37,17.675,36.325,17,35.5,17L35.5,17z"/>
</g>
<g>
	<path style="fill:#DCD5F2;" d="M3.5,32.5c-0.552,0-1-0.449-1-1v-13c0-0.551,0.448-1,1-1s1,0.449,1,1v13   C4.5,32.051,4.052,32.5,3.5,32.5z"/>
	<path style="fill:#8B75A1;" d="M3.5,18C3.771,18,4,18.229,4,18.5v13C4,31.771,3.771,32,3.5,32S3,31.771,3,31.5v-13   C3,18.229,3.229,18,3.5,18 M3.5,17C2.675,17,2,17.675,2,18.5v13C2,32.325,2.675,33,3.5,33S5,32.325,5,31.5v-13   C5,17.675,4.325,17,3.5,17L3.5,17z"/>
</g>
</svg>
